<svg width="512" height="512" viewBox="0 0 512 512" fill="none" xmlns="http://www.w3.org/2000/svg">
  <defs>
    <linearGradient id="bg" x1="0" y1="0" x2="512" y2="512" gradientUnits="userSpaceOnUse">
      <stop offset="0" stop-color="#0E7C86"/>
      <stop offset="1" stop-color="#00BFA6"/>
    </linearGradient>
    <linearGradient id="sun" x1="0" y1="0" x2="1" y2="1">
      <stop offset="0" stop-color="#FFD166"/>
      <stop offset="1" stop-color="#FF9F1C"/>
    </linearGradient>
  </defs>
  <rect width="512" height="512" rx="120" fill="url(#bg)"/>
  <circle cx="360" cy="160" r="88" fill="url(#sun)" opacity="0.95"/>
  <path d="M64 352C119.2 309.6 183.467 288 256 288C328.533 288 392.8 309.6 448 352V448H64V352Z" fill="#F4FEFF" opacity="0.85"/>
  <path d="M128 360C178.131 324.8 228.8 307.2 280 307.2C331.2 307.2 381.869 324.8 432 360" stroke="#2F4858" stroke-width="18" stroke-linecap="round" stroke-opacity="0.5"/>
  <path d="M182 250L224 180C231 167 244 160 258 160H320C334 160 347 167 354 180L396 250" stroke="#F4FEFF" stroke-width="22" stroke-linecap="round" stroke-linejoin="round" opacity="0.9"/>
  <path d="M180 348H220L238 320H300L318 348H358" stroke="#2F4858" stroke-width="20" stroke-linecap="round" stroke-linejoin="round" opacity="0.7"/>
</svg>
